<svg xmlns="http://www.w3.org/2000/svg" viewBox="0 0 128 128" fill="none">
  <defs>
    <linearGradient id="grad1" x1="0%" y1="0%" x2="100%" y2="100%">
      <stop offset="0%" style="stop-color:#6366f1;stop-opacity:1" />
      <stop offset="100%" style="stop-color:#8b5cf6;stop-opacity:1" />
    </linearGradient>
    <linearGradient id="grad2" x1="0%" y1="0%" x2="100%" y2="100%">
      <stop offset="0%" style="stop-color:#06b6d4;stop-opacity:1" />
      <stop offset="100%" style="stop-color:#3b82f6;stop-opacity:1" />
    </linearGradient>
  </defs>
  <!-- Document/File base -->
  <path d="M28 16h52l20 20v76a8 8 0 0 1-8 8H28a8 8 0 0 1-8-8V24a8 8 0 0 1 8-8z" fill="#1e1b4b"/>
  <path d="M80 16v20h20" fill="none" stroke="#1e1b4b" stroke-width="2"/>
  <!-- Document inner fill -->
  <path d="M28 16h52l20 20v76a8 8 0 0 1-8 8H28a8 8 0 0 1-8-8V24a8 8 0 0 1 8-8z" fill="url(#grad1)" opacity="0.15"/>
  <path d="M28 16h52l20 20v76a8 8 0 0 1-8 8H28a8 8 0 0 1-8-8V24a8 8 0 0 1 8-8z" fill="none" stroke="url(#grad1)" stroke-width="3"/>
  <!-- Folded corner -->
  <path d="M80 16l20 20h-16a4 4 0 0 1-4-4V16z" fill="url(#grad1)" opacity="0.4"/>
  <!-- Metadata tag lines -->
  <rect x="32" y="48" width="28" height="6" rx="2" fill="url(#grad2)"/>
  <rect x="32" y="60" width="40" height="6" rx="2" fill="url(#grad1)" opacity="0.6"/>
  <rect x="32" y="72" width="32" height="6" rx="2" fill="url(#grad2)" opacity="0.8"/>
  <!-- Edit pencil -->
  <g transform="translate(58, 58)">
    <path d="M36 8l6 6-28 28-8 2 2-8z" fill="url(#grad2)"/>
    <path d="M36 8l6 6" stroke="#1e1b4b" stroke-width="2" stroke-linecap="round"/>
    <path d="M34 16l-20 20" stroke="#1e1b4b" stroke-width="1.5" stroke-linecap="round" opacity="0.5"/>
  </g>
</svg>
