<svg xmlns="http://www.w3.org/2000/svg" fill="none" viewBox="0 0 128 128"><defs><linearGradient id="a" x1="0%" x2="100%" y1="0%" y2="100%"><stop offset="0%" stop-color="#6366f1"/><stop offset="100%" stop-color="#8b5cf6"/></linearGradient><linearGradient id="b" x1="0%" x2="100%" y1="0%" y2="100%"><stop offset="0%" stop-color="#06b6d4"/><stop offset="100%" stop-color="#3b82f6"/></linearGradient></defs><path fill="#1e1b4b" d="M28 16h52l20 20v76a8 8 0 0 1-8 8H28a8 8 0 0 1-8-8V24a8 8 0 0 1 8-8"/><path fill="url(#a)" d="M28 16h52l20 20v76a8 8 0 0 1-8 8H28a8 8 0 0 1-8-8V24a8 8 0 0 1 8-8" opacity=".15"/><path fill="url(#a)" d="m80 16 20 20H84a4 4 0 0 1-4-4z" opacity=".4"/><rect width="28" height="6" x="32" y="48" fill="url(#b)" rx="2"/><rect width="40" height="6" x="32" y="60" fill="url(#a)" opacity=".6" rx="2"/><rect width="32" height="6" x="32" y="72" fill="url(#b)" opacity=".8" rx="2"/><path fill="url(#b)" d="m36 8 6 6-28 28-8 2 2-8z" transform="translate(55 55)"/><path stroke="#1e1b4b" stroke-linecap="round" stroke-width="1.5" d="M89 71 69 91" opacity=".5"/></svg>
