<?xml version="1.0" encoding="UTF-8" standalone="no"?>
<!DOCTYPE svg PUBLIC "-//W3C//DTD SVG 1.1//EN" "http://www.w3.org/Graphics/SVG/1.1/DTD/svg11.dtd">
<svg width="100%" height="100%" viewBox="0 0 2616 2548" version="1.1" xmlns="http://www.w3.org/2000/svg" xmlns:xlink="http://www.w3.org/1999/xlink" xml:space="preserve" xmlns:serif="http://www.serif.com/" style="fill-rule:evenodd;clip-rule:evenodd;stroke-linejoin:round;stroke-miterlimit:2;">
    <g>
        <g transform="matrix(1,0,0,1,-164.931779,-73.460967)">
            <path d="M1584.882,761.426C1874.718,761.426 2110.029,996.737 2110.029,1286.573C2110.029,1576.41 1874.718,1811.721 1584.882,1811.721C1295.045,1811.721 1059.735,1576.41 1059.735,1286.573C1059.735,996.737 1295.045,761.426 1584.882,761.426ZM1605.137,1243.206C1550.764,1243.206 1506.621,1287.35 1506.621,1341.722C1506.621,1396.095 1550.764,1440.239 1605.137,1440.239C1659.51,1440.239 1703.653,1396.095 1703.653,1341.722C1703.653,1287.35 1659.51,1243.206 1605.137,1243.206ZM1249.83,1162.785C1201.644,1162.785 1162.523,1201.906 1162.523,1250.092C1162.523,1298.279 1201.644,1337.4 1249.83,1337.4C1298.017,1337.4 1337.138,1298.279 1337.138,1250.092C1337.138,1201.906 1298.017,1162.785 1249.83,1162.785ZM1876.524,1068.018C1841.072,1068.018 1812.289,1096.801 1812.289,1132.253C1812.289,1167.705 1841.072,1196.487 1876.524,1196.487C1911.976,1196.487 1940.758,1167.705 1940.758,1132.253C1940.758,1096.801 1911.976,1068.018 1876.524,1068.018ZM1533.859,937.066C1498.416,937.066 1469.641,965.841 1469.641,1001.284C1469.641,1036.728 1498.416,1065.503 1533.859,1065.503C1569.302,1065.503 1598.078,1036.728 1598.078,1001.284C1598.078,965.841 1569.302,937.066 1533.859,937.066ZM1845.097,1378.838C1778.335,1378.838 1724.133,1433.04 1724.133,1499.802C1724.133,1566.564 1778.335,1620.766 1845.097,1620.766C1911.859,1620.766 1966.061,1566.564 1966.061,1499.802C1966.061,1433.04 1911.859,1378.838 1845.097,1378.838ZM1366.571,1464.604C1331.807,1464.604 1303.583,1492.828 1303.583,1527.592C1303.583,1562.357 1331.807,1590.581 1366.571,1590.581C1401.335,1590.581 1429.559,1562.357 1429.559,1527.592C1429.559,1492.828 1401.335,1464.604 1366.571,1464.604ZM1304.984,1349.379L1278.688,1360.414L1316.913,1451.504L1343.21,1440.469L1304.984,1349.379ZM1511.653,1425.797L1495.406,1406.499L1425.271,1465.544L1441.517,1484.843L1511.653,1425.797ZM1363.696,1262.301L1357.001,1287.165L1478.911,1319.993L1485.607,1295.129L1363.696,1262.301ZM1475.622,1063.284L1458.709,1044.768L1327.804,1164.34L1344.716,1182.856L1475.622,1063.284ZM1561.875,1079.019L1536.284,1084.291L1563.718,1217.455L1589.309,1212.183L1561.875,1079.019ZM1617.521,1016.923L1607.899,1040.425L1790.257,1115.089L1799.88,1091.587L1617.521,1016.923ZM1815.384,1193.568L1798.706,1173.233L1698.419,1255.486L1715.097,1275.821L1815.384,1193.568Z" style="fill:rgb(80,136,224);"/>
        </g>
        <g id="i">
            <g transform="matrix(1,0,0,1,-3.290271,-3.651495)">
                <circle cx="1682.121" cy="1360.898" r="17.405" style="fill:rgb(80,136,224);"/>
            </g>
            <path d="M1664.508,1409.773L1664.508,1492.958L1651.057,1493.226C1649.185,1495.705 1647.198,1497.709 1646.725,1500.762C1647.129,1504.722 1648.451,1507.693 1651.165,1509.164L1707.516,1509.114C1709.685,1507.766 1711.503,1505.726 1712.518,1502.099C1712.239,1499.47 1711.208,1496.304 1708.838,1492.974L1696.312,1493.044L1696.063,1392.447L1651.383,1392.447L1647.857,1395.958L1647.313,1402.097L1647.902,1406.731L1651.06,1409.419L1664.508,1409.773Z" style="fill:rgb(80,136,224);"/>
        </g>
        <g transform="matrix(1,0,0,1,92.303939,25.340598)">
            <path d="M1877.815,1541.815C1943.005,1440.778 1980.85,1320.471 1980.85,1191.395C1980.85,1025.903 1918.639,874.827 1816.346,760.298L2163.139,760.298C2164.736,746.047 2165.324,732.276 2159.742,714.1C2149.799,681.722 2122.101,669.853 2091.701,666.965L1713.067,666.965C1667.56,633.936 1617.595,606.682 1564.252,586.284L2071.936,586.284C2071.157,584.97 2091.71,588.593 2094.699,591.001C2096.515,592.465 2105.971,597.117 2105.971,597.117L2115.763,605.269C2116.499,583.045 2113.271,562.179 2107.081,542.327C2090.598,519.886 2069.451,508.647 2048.207,507.416L652.22,506.361C619.293,507.471 602.681,504.184 579.322,517.033C549.426,533.479 542.546,556.962 545.854,605.637C545.854,605.637 557.677,595.695 561.718,593.239C564.507,591.543 577.814,587.602 583.67,587.53C668.493,586.487 1048.795,588.112 1097.013,588.324C1075.3,596.846 1054.158,606.507 1033.66,617.234C1029.402,619.279 1025.521,621.243 1022.247,623.048C1019.513,624.556 1016.51,626.348 1013.345,628.333C992.52,640.199 972.417,653.188 953.116,667.215L557.062,667.314C557.062,667.314 539.089,671.171 531.519,676.033C523.86,680.952 516.51,688.756 511.109,696.828C505.533,705.161 500.29,715.604 498.062,726.03C495.7,737.086 494.791,743.891 496.935,763.161L848.255,762.464C772.719,847.798 719.332,953.182 697.14,1069.571C694.796,1080.595 692.926,1091.353 691.693,1101.575C685.264,1154.867 680.142,1201.581 689.596,1262.966C725.261,1586.754 1000.04,1838.981 1333.264,1838.981C1459.32,1838.981 1577.012,1802.886 1676.56,1740.477L1724.965,1787.371C1724.517,1806.01 1718.768,1823.282 1726.511,1838.457C1738.379,1861.717 1761.756,1890.679 1796.174,1926.927C1825.059,1957.348 1844.757,1975.172 1887.925,2016.137C1887.925,2016.137 754.387,2025.293 511.373,2017.877C480.146,2016.924 449.845,1993.895 429.845,1971.641C409.845,1949.387 394.704,1915.974 391.374,1884.352C372.296,1703.207 315.376,884.774 315.376,884.774C313.361,856.016 323.902,827.098 348.272,798.005C364.898,782.433 381.964,772.112 404.024,761.872C404.024,761.872 406.066,427.791 406.101,345.63C406.113,318.456 428.075,292.021 445.587,274.307C463.004,256.69 486.444,240.827 511.174,239.349C608.703,233.523 1030.761,239.349 1030.761,239.349C1062.445,246.846 1076.557,250.215 1093.966,264.802C1113.826,281.444 1126.798,318.723 1149.926,339.201C1173.053,359.68 1208.442,385.752 1232.732,387.672L2129.812,387.672C2164.512,389.392 2198.898,409.006 2219.818,427.531C2239.694,445.131 2243.283,457.664 2255.331,498.82L2256.033,760.601C2268.828,767.876 2282.79,774.78 2292.893,781.688C2301.501,787.574 2316.647,802.048 2316.647,802.048C2316.647,802.048 2349.112,845.648 2345.065,900.541L2271.662,1861.718L2023.48,1617.282C2023.48,1617.282 1984.088,1590.051 1967.481,1585.145C1953.504,1581.015 1927.119,1582.9 1923.84,1587.841L1877.815,1541.815Z" style="fill:rgb(80,136,224);"/>
        </g>
        <path d="M1814.908,1734.111C1861.14,1699.252 1902.559,1658.343 1937.985,1612.567L2002.696,1677.278C2002.696,1677.278 2024.254,1662.895 2034.604,1662.008C2046.203,1661.014 2066.582,1667.828 2076.108,1676.584C2134.569,1730.315 2329.832,1926.919 2385.369,1984.393C2394.08,1993.408 2403.902,2013.162 2407.5,2025.172C2412.477,2041.78 2417.162,2062.643 2415.227,2084.042C2413.301,2105.342 2404.411,2127.083 2393.898,2144.554C2383.433,2161.944 2368.487,2178.121 2350.948,2188.334C2332.591,2199.022 2305.347,2207.313 2283.758,2208.684C2263.053,2209.999 2240.192,2203.915 2222.608,2197.096C2205.913,2190.621 2178.255,2167.767 2178.255,2167.767C2178.255,2167.767 1930.982,1922.126 1879.527,1869.038C1874.38,1863.729 1871.328,1854.786 1869.52,1849.242C1867.359,1842.619 1865.296,1835.902 1866.564,1829.304C1868.101,1821.305 1871.871,1809.779 1878.743,1801.25L1814.908,1734.111Z" style="fill:rgb(104,85,209);"/>
    </g>
</svg>
